<svg width="148" height="24" viewBox="0 0 148 24" fill="none" xmlns="http://www.w3.org/2000/svg">
<path fill-rule="evenodd" clip-rule="evenodd" d="M132.51 16.4706L132.467 1.82547L132.467 1.82536C132.474 1.68871 132.423 1.55562 132.326 1.45929C132.229 1.36285 132.095 1.3122 131.959 1.3199H130.869C130.731 1.31203 130.597 1.36357 130.499 1.46152C130.402 1.55934 130.352 1.69425 130.36 1.83204L130.299 4.11375C129.203 2.41365 127.087 1.02411 124.024 1.03232C119.769 1.0457 116.507 4.5284 116.526 9.19425C116.544 13.86 119.884 17.3246 124.14 17.3115C127.068 17.2999 129.14 15.9699 130.326 14.1607L130.4 16.4739C130.392 16.6117 130.444 16.7463 130.541 16.8434C130.639 16.9408 130.774 16.9915 130.912 16.9827H132.002C132.139 16.9905 132.274 16.9389 132.371 16.841C132.468 16.7432 132.519 16.6083 132.51 16.4706ZM113.634 16.1235L113.593 1.85351C113.598 1.72003 113.548 1.59044 113.454 1.49566C113.36 1.40079 113.231 1.3491 113.098 1.35287H112.008C111.87 1.34504 111.736 1.39657 111.638 1.49449C111.541 1.59231 111.49 1.72728 111.499 1.86513L111.438 4.14672C110.343 2.44826 108.262 1.02411 105.199 1.03232C100.944 1.0457 97.6825 4.5284 97.7007 9.19425C97.7189 13.86 101.06 17.3246 105.315 17.3115C108.038 17.3031 110.01 16.0706 111.23 14.3986V16.4078C111.23 19.4724 109.063 21.8285 105.285 21.8402C103.443 21.8685 101.629 21.3908 100.039 20.4588C99.7318 20.2821 99.4891 20.3168 99.3239 20.624L98.7477 21.5791C98.571 21.8864 98.6403 22.1293 98.9128 22.2945C100.311 23.1437 102.281 23.9566 105.419 23.9467C110.764 23.9318 113.647 20.5514 113.634 16.1235ZM42.9606 1.43676C43.0441 1.51994 43.0882 1.63488 43.0819 1.75273L43.1316 16.8703C43.1388 16.9884 43.0952 17.104 43.0119 17.1878C42.9286 17.2718 42.8136 17.3162 42.6956 17.3098H42.286C42.1699 17.3112 42.0581 17.2657 41.9757 17.1836C41.8934 17.1016 41.8475 16.9899 41.8484 16.8736L41.8386 13.7692C40.5654 16.1963 38.1115 17.6286 35.1391 17.6368H35.1161C30.7731 17.6368 27.3681 14.0037 27.3549 9.35452C27.3483 7.06788 28.1376 4.95958 29.5776 3.41482C30.9914 1.89063 32.9755 1.02707 35.0516 1.03232H35.0797C38.1182 1.03232 40.5753 2.44005 41.8071 4.8324L41.7989 1.76258C41.7897 1.64342 41.8323 1.52609 41.9158 1.44075C41.9994 1.35524 42.1156 1.30996 42.2348 1.3165H42.6443C42.762 1.30974 42.877 1.35346 42.9606 1.43676ZM39.9494 4.2542C38.7456 2.96381 37.0977 2.28142 35.1822 2.28142H35.1821H35.1574C33.4239 2.2902 31.7717 3.01952 30.5947 4.2955C29.3291 5.67202 28.6407 7.48431 28.6727 9.35616C28.6841 13.3065 31.5476 16.3928 35.1804 16.3928H35.1986C39.0907 16.3813 41.7989 13.4716 41.7873 9.31815C41.7824 7.31885 41.1532 5.54447 39.9494 4.2542ZM55.1951 1.03232H55.1719C52.1864 1.04054 49.7308 2.4648 48.4659 4.88027L48.4297 1.79731C48.4362 1.6807 48.3934 1.56672 48.3117 1.48346C48.2299 1.40009 48.1169 1.35507 48.0004 1.35944H47.5908C47.4731 1.34908 47.3571 1.3932 47.2759 1.47923C47.1948 1.56516 47.1574 1.68365 47.1746 1.80072L47.2374 23.5633C47.2344 23.6773 47.2746 23.7883 47.3498 23.874C47.4245 23.9552 47.5301 24.0009 47.6403 23.9995H48.1192C48.2378 24.0058 48.3525 23.9563 48.4297 23.8657C48.4952 23.7777 48.528 23.6696 48.5221 23.56L48.494 13.8121C49.7886 16.2292 52.2392 17.6484 55.1884 17.6468H55.2149C57.3005 17.6509 59.2935 16.784 60.7155 15.2544C62.1669 13.708 62.9628 11.5981 62.9562 9.31475C62.9398 4.66556 59.5347 1.03244 55.1951 1.03244V1.03232ZM48.4873 9.36273C48.4991 13.508 51.2138 16.3978 55.0927 16.3978V16.3977L55.1158 16.3928C56.8492 16.384 58.5014 15.6547 59.6783 14.3788C60.9459 13.0048 61.6371 11.1944 61.6088 9.32308C61.5972 5.37434 58.7338 2.28799 55.1009 2.28799H55.0695C53.1557 2.29467 51.5076 2.98528 50.3038 4.28881C49.1281 5.56266 48.4873 7.36848 48.4873 9.36273ZM74.013 1.03232H73.9898C71.0043 1.04054 68.5488 2.4648 67.2838 4.88027L67.2476 1.79731C67.2538 1.67947 67.2097 1.56452 67.1262 1.48134C67.0426 1.39805 66.9276 1.35432 66.81 1.36108H66.4003C66.2855 1.35561 66.1742 1.40162 66.0966 1.48662C66.0191 1.57148 65.9833 1.6866 65.9992 1.8006L66.0619 23.5633C66.0589 23.6773 66.099 23.7883 66.1742 23.874C66.2489 23.9553 66.3546 24.0009 66.4648 23.9995H66.9437C67.0624 24.0058 67.1771 23.9563 67.2542 23.8657C67.3198 23.7777 67.3525 23.6696 67.3467 23.56L67.3186 13.8121C68.6132 16.2292 71.0637 17.6484 74.0129 17.6468H74.0395C76.1208 17.6493 78.1096 16.7846 79.53 15.2594C80.9815 13.713 81.7775 11.603 81.7708 9.31979C81.7559 4.66556 78.3511 1.03232 74.013 1.03232ZM69.1201 4.28224C67.9445 5.55609 67.3037 7.36191 67.3037 9.35605C67.3153 13.5098 70.0449 16.406 73.9271 16.3911C75.6606 16.3823 77.3127 15.653 78.4897 14.3771C79.7553 13.0006 80.4437 11.1883 80.4118 9.31651C80.4002 5.36766 77.5369 2.28142 73.9041 2.28142H73.8858C71.972 2.28799 70.324 2.97871 69.1201 4.28224ZM97.2448 1.35287C97.158 1.2446 97.023 1.18693 96.8849 1.19917H96.373C96.1766 1.20792 96.0012 1.32493 95.9172 1.50317L89.8074 15.5155L83.5967 1.5528C83.5301 1.35644 83.341 1.22872 83.1345 1.24047H82.5879C82.4458 1.22492 82.3065 1.28824 82.2245 1.40567C82.1595 1.52261 82.1633 1.66583 82.2345 1.77913L89.0593 17.2238L86.4453 23.3369C86.3928 23.4603 86.4058 23.6019 86.48 23.7136C86.559 23.8143 86.6827 23.8694 86.8102 23.8607H87.3222C87.5296 23.872 87.719 23.7428 87.7844 23.5451L90.4167 17.4188L97.2812 1.7329V1.71788C97.3304 1.59769 97.3168 1.46086 97.2449 1.35275L97.2448 1.35287ZM111.334 9.14966C111.324 5.7444 109.035 3.22979 105.667 3.23977C102.603 3.24798 100.092 5.77585 100.102 9.18756C100.112 12.5994 102.638 15.1009 105.693 15.0909C109.07 15.081 111.344 12.5894 111.334 9.14966ZM130.175 9.15459C130.165 5.74945 127.877 3.23472 124.508 3.24469C121.445 3.25291 118.933 5.78078 118.943 9.19261C118.953 12.6043 121.48 15.1107 124.543 15.1025C127.905 15.0876 130.185 12.5977 130.175 9.15459ZM135.292 14.9785C135.115 15.2858 135.15 15.5286 135.457 15.694C137.269 16.7654 139.342 17.3122 141.445 17.2735C144.918 17.2635 147.355 15.451 147.355 12.7266C147.355 10.1028 146.09 8.8473 142.071 7.80307C139.141 7.06284 138.081 6.52089 138.081 5.2603C138.07 3.79978 139.47 3.14379 141.207 3.13886C142.944 3.13393 144.069 3.47102 145.466 4.2508C145.773 4.42761 146.016 4.35815 146.181 4.08559L146.757 3.09428C146.934 2.78699 146.864 2.54412 146.592 2.37892C145.363 1.63376 143.725 1.03232 141.414 1.03232C137.975 1.04218 135.708 2.78535 135.708 5.44204C135.708 7.96158 137.787 9.14297 141.237 10.0219C144.163 10.7638 144.989 11.4411 144.989 12.8042C144.992 14.3392 143.633 15.1652 141.455 15.1652C139.377 15.1702 137.845 14.5968 136.651 13.7823C136.344 13.5791 136.101 13.6484 135.936 13.9211L135.292 14.9785Z" fill="#7200DA"/>
<path d="M15.4254 0.0547854C15.3934 0.0798747 15.3682 0.112267 15.352 0.149253C15.3095 0.243485 15.3244 0.353265 15.3903 0.432891L16.5472 1.71515C16.5954 1.77511 16.6176 1.85173 16.6088 1.92802C16.6 2.00431 16.561 2.07396 16.5005 2.12152L13.3002 4.62444C13.2234 4.68528 13.1741 4.77419 13.1635 4.87138C13.1528 4.96856 13.1816 5.06595 13.2434 5.14189L14.5958 6.82876C14.7242 6.98755 14.957 7.01416 15.1182 6.88848L18.315 4.38556C18.4416 4.2866 18.6246 4.30728 18.7257 4.43197L19.8826 5.87666C19.9471 5.95847 20.0521 5.99756 20.1547 5.97796C20.2545 5.95845 20.3335 5.88247 20.3566 5.78384L21.6705 0.356681C21.6894 0.273892 21.6691 0.187039 21.6154 0.121101C21.5619 0.0531364 21.5118 1.32144e-05 21.4268 1.32144e-05H15.7475C15.6378 -0.000567087 15.5287 0.0179695 15.4254 0.0547854Z" fill="#F9C00C"/>
<path d="M2.26498 0.314465C2.23302 0.339548 2.20781 0.371933 2.1916 0.409028C2.14915 0.503117 2.16401 0.613019 2.22995 0.692599L3.38727 1.97444C3.43548 2.03438 3.45765 2.11099 3.44888 2.18726C3.4401 2.26353 3.4011 2.33317 3.34052 2.38072L0.138999 4.88305C0.0621101 4.94388 0.0128492 5.03276 0.00217913 5.12992C-0.00849098 5.22708 0.020315 5.32446 0.0821866 5.40037L1.43504 7.08684C1.56354 7.2456 1.7964 7.2722 1.95772 7.14655L5.15249 4.64258C5.27912 4.54372 5.46207 4.56439 5.5632 4.68897L6.72076 6.13344C6.7853 6.21523 6.89034 6.25431 6.99299 6.23472C7.09284 6.21521 7.17192 6.13925 7.19503 6.04065L8.50918 0.61464C8.52813 0.531889 8.50784 0.445059 8.45414 0.379116C8.40064 0.311167 8.35057 0.258057 8.26536 0.258057H2.58727C2.47732 0.258057 2.36831 0.277134 2.26498 0.314465Z" fill="#7200DA"/>
<path d="M2.26407 12.4419C2.23213 12.467 2.20693 12.4994 2.19072 12.5365C2.14829 12.6306 2.16315 12.7405 2.22905 12.8201L3.38592 14.1022C3.43411 14.1622 3.45627 14.2388 3.4475 14.3151C3.43873 14.3914 3.39974 14.461 3.33918 14.5086L0.138944 17.0115C0.0620853 17.0724 0.0128441 17.1613 0.00217826 17.2585C-0.00848758 17.3556 0.0203068 17.453 0.0821537 17.529L1.43447 19.2158C1.56292 19.3746 1.79568 19.4012 1.95694 19.2756L5.15374 16.7726C5.28034 16.6737 5.46331 16.6944 5.5644 16.8191L6.72127 18.2637C6.78578 18.3456 6.89078 18.3846 6.99338 18.365C7.0932 18.3455 7.17225 18.2696 7.19534 18.1709L8.50921 12.7438C8.52812 12.661 8.5078 12.5741 8.45407 12.5082C8.40059 12.4402 8.35055 12.3871 8.26548 12.3871H2.58624C2.47647 12.3865 2.36743 12.4051 2.26407 12.4419Z" fill="#3090FF"/>
<path d="M15.4243 12.4419C15.3924 12.467 15.3672 12.4994 15.351 12.5365C15.3085 12.6306 15.3234 12.7405 15.3893 12.8201L16.5464 14.1022C16.5946 14.1622 16.6167 14.2388 16.6079 14.3151C16.5992 14.3914 16.5602 14.461 16.4996 14.5086L13.3023 17.0115C13.2249 17.0718 13.175 17.1605 13.1637 17.2577C13.1524 17.3549 13.1807 17.4526 13.2422 17.5289L14.5945 19.2158C14.7229 19.3747 14.9558 19.4013 15.1171 19.2755L18.3145 16.7726C18.4411 16.6737 18.6241 16.6943 18.7252 16.819L19.8823 18.2637C19.9468 18.3455 20.0518 18.3846 20.1544 18.365C20.2543 18.3455 20.3333 18.2695 20.3564 18.1709L21.6705 12.7438C21.6894 12.661 21.6691 12.5741 21.6153 12.5082C21.5619 12.4402 21.5118 12.3871 21.4267 12.3871H15.7465C15.6368 12.3865 15.5277 12.4051 15.4243 12.4419Z" fill="#FF0052"/>
</svg>
